<svg xmlns="http://www.w3.org/2000/svg" xmlns:xlink="http://www.w3.org/1999/xlink" width="800" zoomAndPan="magnify" viewBox="0 0 600 749.999995" height="1000" preserveAspectRatio="xMidYMid meet" version="1.0"><defs><clipPath id="8f2672ef9d"><path d="M 177.230469 328.589844 L 586.601562 328.589844 L 586.601562 737.960938 L 177.230469 737.960938 Z M 177.230469 328.589844 " clip-rule="nonzero"/></clipPath><clipPath id="e3aa8bf14b"><path d="M 381.917969 328.589844 C 268.871094 328.589844 177.230469 420.230469 177.230469 533.277344 C 177.230469 646.320312 268.871094 737.960938 381.917969 737.960938 C 494.960938 737.960938 586.601562 646.320312 586.601562 533.277344 C 586.601562 420.230469 494.960938 328.589844 381.917969 328.589844 Z M 381.917969 328.589844 " clip-rule="nonzero"/></clipPath><clipPath id="199204f4e0"><path d="M 23.050781 143.605469 L 331.414062 143.605469 L 331.414062 451.96875 L 23.050781 451.96875 Z M 23.050781 143.605469 " clip-rule="nonzero"/></clipPath><clipPath id="53ecf2ca7e"><path d="M 177.230469 143.605469 C 92.078125 143.605469 23.050781 212.632812 23.050781 297.785156 C 23.050781 382.9375 92.078125 451.96875 177.230469 451.96875 C 262.382812 451.96875 331.414062 382.9375 331.414062 297.785156 C 331.414062 212.632812 262.382812 143.605469 177.230469 143.605469 Z M 177.230469 143.605469 " clip-rule="nonzero"/></clipPath></defs><g clip-path="url(#8f2672ef9d)"><g clip-path="url(#e3aa8bf14b)"><path fill="#ffc100" d="M 177.230469 328.589844 L 586.601562 328.589844 L 586.601562 737.960938 L 177.230469 737.960938 Z M 177.230469 328.589844 " fill-opacity="1" fill-rule="nonzero"/></g></g><g clip-path="url(#199204f4e0)"><g clip-path="url(#53ecf2ca7e)"><path fill="#ffc100" d="M 23.050781 143.605469 L 331.414062 143.605469 L 331.414062 451.96875 L 23.050781 451.96875 Z M 23.050781 143.605469 " fill-opacity="1" fill-rule="nonzero"/></g></g></svg>