<svg xmlns="http://www.w3.org/2000/svg" xmlns:xlink="http://www.w3.org/1999/xlink" width="800" zoomAndPan="magnify" viewBox="0 0 600 749.999995" height="1000" preserveAspectRatio="xMidYMid meet" version="1.0"><defs><clipPath id="a491ae1a11"><path d="M 0 386.855469 L 540 386.855469 L 540 750 L 0 750 Z M 0 386.855469 " clip-rule="nonzero"/></clipPath><clipPath id="b1f1c0c325"><path d="M 208.273438 386.855469 C 25.066406 386.855469 -123.453125 535.375 -123.453125 718.582031 C -123.453125 901.789062 25.066406 1050.308594 208.273438 1050.308594 C 391.480469 1050.308594 540 901.789062 540 718.582031 C 540 535.375 391.480469 386.855469 208.273438 386.855469 Z M 208.273438 386.855469 " clip-rule="nonzero"/></clipPath><clipPath id="5ce0a3e994"><path d="M 0 213.617188 L 269.605469 213.617188 L 269.605469 536.382812 L 0 536.382812 Z M 0 213.617188 " clip-rule="nonzero"/></clipPath><clipPath id="39a8ae6c59"><path d="M 108.21875 213.617188 C 19.089844 213.617188 -53.164062 285.871094 -53.164062 375 C -53.164062 464.128906 19.089844 536.382812 108.21875 536.382812 C 197.351562 536.382812 269.605469 464.128906 269.605469 375 C 269.605469 285.871094 197.351562 213.617188 108.21875 213.617188 Z M 108.21875 213.617188 " clip-rule="nonzero"/></clipPath></defs><rect x="-60" width="720" fill="#ffffff" y="-74.999999" height="899.999994" fill-opacity="1"/><rect x="-60" width="720" fill="#ffffff" y="-74.999999" height="899.999994" fill-opacity="1"/><g clip-path="url(#a491ae1a11)"><g clip-path="url(#b1f1c0c325)"><path fill="#ffdc70" d="M -123.453125 386.855469 L 540 386.855469 L 540 1050.308594 L -123.453125 1050.308594 Z M -123.453125 386.855469 " fill-opacity="1" fill-rule="nonzero"/></g></g><g clip-path="url(#5ce0a3e994)"><g clip-path="url(#39a8ae6c59)"><path fill="#ffdc70" d="M -53.164062 213.617188 L 269.605469 213.617188 L 269.605469 536.382812 L -53.164062 536.382812 Z M -53.164062 213.617188 " fill-opacity="1" fill-rule="nonzero"/></g></g></svg>