<svg xmlns="http://www.w3.org/2000/svg" xmlns:xlink="http://www.w3.org/1999/xlink" width="800" zoomAndPan="magnify" viewBox="0 0 600 749.999995" height="1000" preserveAspectRatio="xMidYMid meet" version="1.0"><defs><clipPath id="84e814cacc"><path d="M 0 386.855469 L 540 386.855469 L 540 750 L 0 750 Z M 0 386.855469 " clip-rule="nonzero"/></clipPath><clipPath id="4873c00851"><path d="M 208.273438 386.855469 C 25.066406 386.855469 -123.453125 535.375 -123.453125 718.582031 C -123.453125 901.789062 25.066406 1050.308594 208.273438 1050.308594 C 391.480469 1050.308594 540 901.789062 540 718.582031 C 540 535.375 391.480469 386.855469 208.273438 386.855469 Z M 208.273438 386.855469 " clip-rule="nonzero"/></clipPath><clipPath id="ad59e7d01a"><path d="M 0 193.035156 L 271.890625 193.035156 L 271.890625 515.804688 L 0 515.804688 Z M 0 193.035156 " clip-rule="nonzero"/></clipPath><clipPath id="910f1d8201"><path d="M 110.507812 193.035156 C 21.378906 193.035156 -50.875 265.289062 -50.875 354.421875 C -50.875 443.550781 21.378906 515.804688 110.507812 515.804688 C 199.636719 515.804688 271.890625 443.550781 271.890625 354.421875 C 271.890625 265.289062 199.636719 193.035156 110.507812 193.035156 Z M 110.507812 193.035156 " clip-rule="nonzero"/></clipPath></defs><g clip-path="url(#84e814cacc)"><g clip-path="url(#4873c00851)"><path fill="#ffd248" d="M -123.453125 386.855469 L 540 386.855469 L 540 1050.308594 L -123.453125 1050.308594 Z M -123.453125 386.855469 " fill-opacity="1" fill-rule="nonzero"/></g></g><g clip-path="url(#ad59e7d01a)"><g clip-path="url(#910f1d8201)"><path fill="#ffd248" d="M -50.875 193.035156 L 271.890625 193.035156 L 271.890625 515.804688 L -50.875 515.804688 Z M -50.875 193.035156 " fill-opacity="1" fill-rule="nonzero"/></g></g></svg>