<svg xmlns="http://www.w3.org/2000/svg" xmlns:xlink="http://www.w3.org/1999/xlink" width="800" zoomAndPan="magnify" viewBox="0 0 600 749.999995" height="1000" preserveAspectRatio="xMidYMid meet" version="1.0"><defs><clipPath id="cb75f2c733"><path d="M 0 251.214844 L 600 251.214844 L 600 750 L 0 750 Z M 0 251.214844 " clip-rule="nonzero"/></clipPath><clipPath id="c8aab11d4e"><path d="M 268.273438 251.214844 C 85.066406 251.214844 -63.453125 399.734375 -63.453125 582.941406 C -63.453125 766.148438 85.066406 914.667969 268.273438 914.667969 C 451.480469 914.667969 600 766.148438 600 582.941406 C 600 399.734375 451.480469 251.214844 268.273438 251.214844 Z M 268.273438 251.214844 " clip-rule="nonzero"/></clipPath><clipPath id="59125cb7da"><path d="M 0 32.875 L 322.769531 32.875 L 322.769531 355.640625 L 0 355.640625 Z M 0 32.875 " clip-rule="nonzero"/></clipPath><clipPath id="8078b49432"><path d="M 161.382812 32.875 C 72.253906 32.875 0 105.128906 0 194.257812 C 0 283.386719 72.253906 355.640625 161.382812 355.640625 C 250.515625 355.640625 322.769531 283.386719 322.769531 194.257812 C 322.769531 105.128906 250.515625 32.875 161.382812 32.875 Z M 161.382812 32.875 " clip-rule="nonzero"/></clipPath></defs><g clip-path="url(#cb75f2c733)"><g clip-path="url(#c8aab11d4e)"><path fill="#ffdc70" d="M -63.453125 251.214844 L 600 251.214844 L 600 914.667969 L -63.453125 914.667969 Z M -63.453125 251.214844 " fill-opacity="1" fill-rule="nonzero"/></g></g><g clip-path="url(#59125cb7da)"><g clip-path="url(#8078b49432)"><path fill="#ffdc70" d="M 0 32.875 L 322.769531 32.875 L 322.769531 355.640625 L 0 355.640625 Z M 0 32.875 " fill-opacity="1" fill-rule="nonzero"/></g></g></svg>