<svg xmlns="http://www.w3.org/2000/svg" xmlns:xlink="http://www.w3.org/1999/xlink" width="800" zoomAndPan="magnify" viewBox="0 0 600 749.999995" height="1000" preserveAspectRatio="xMidYMid meet" version="1.0"><defs><clipPath id="a5cd34141d"><path d="M 0 358.273438 L 600 358.273438 L 600 750 L 0 750 Z M 0 358.273438 " clip-rule="nonzero"/></clipPath><clipPath id="5dfe615130"><path d="M 278.5625 358.273438 C 95.355469 358.273438 -53.164062 506.792969 -53.164062 690 C -53.164062 873.207031 95.355469 1021.726562 278.5625 1021.726562 C 461.769531 1021.726562 610.289062 873.207031 610.289062 690 C 610.289062 506.792969 461.769531 358.273438 278.5625 358.273438 Z M 278.5625 358.273438 " clip-rule="nonzero"/></clipPath><clipPath id="7189b6a5c0"><path d="M 0 234.09375 L 278.5625 234.09375 L 278.5625 556.863281 L 0 556.863281 Z M 0 234.09375 " clip-rule="nonzero"/></clipPath><clipPath id="81b792dd54"><path d="M 117.179688 234.09375 C 28.050781 234.09375 -44.203125 306.347656 -44.203125 395.476562 C -44.203125 484.609375 28.050781 556.863281 117.179688 556.863281 C 206.308594 556.863281 278.5625 484.609375 278.5625 395.476562 C 278.5625 306.347656 206.308594 234.09375 117.179688 234.09375 Z M 117.179688 234.09375 " clip-rule="nonzero"/></clipPath></defs><g clip-path="url(#a5cd34141d)"><g clip-path="url(#5dfe615130)"><path fill="#ffdc70" d="M -53.164062 358.273438 L 610.289062 358.273438 L 610.289062 1021.726562 L -53.164062 1021.726562 Z M -53.164062 358.273438 " fill-opacity="1" fill-rule="nonzero"/></g></g><g clip-path="url(#7189b6a5c0)"><g clip-path="url(#81b792dd54)"><path fill="#ffdc70" d="M -44.203125 234.09375 L 278.5625 234.09375 L 278.5625 556.863281 L -44.203125 556.863281 Z M -44.203125 234.09375 " fill-opacity="1" fill-rule="nonzero"/></g></g></svg>